<?xml version="1.0" encoding="UTF-8" standalone="no"?>
<!-- Created with Inkscape (http://www.inkscape.org/) -->

<svg
   width="512"
   height="512"
   viewBox="0 0 512 512"
   version="1.1"
   id="svg1"
   xml:space="preserve"
   inkscape:version="1.4.4 (dcaf3e7d9e, 2026-05-05)"
   sodipodi:docname="mhserver-client icon.svg"
   xmlns:inkscape="http://www.inkscape.org/namespaces/inkscape"
   xmlns:sodipodi="http://sodipodi.sourceforge.net/DTD/sodipodi-0.dtd"
   xmlns="http://www.w3.org/2000/svg"
   xmlns:svg="http://www.w3.org/2000/svg"
   xmlns:rdf="http://www.w3.org/1999/02/22-rdf-syntax-ns#"
   xmlns:cc="http://creativecommons.org/ns#"><sodipodi:namedview
     id="namedview1"
     pagecolor="#505050"
     bordercolor="#ffffff"
     borderopacity="1"
     inkscape:showpageshadow="0"
     inkscape:pageopacity="0"
     inkscape:pagecheckerboard="1"
     inkscape:deskcolor="#505050"
     inkscape:document-units="px"
     inkscape:zoom="1.09375"
     inkscape:cx="171.88571"
     inkscape:cy="214.4"
     inkscape:window-width="1920"
     inkscape:window-height="1020"
     inkscape:window-x="0"
     inkscape:window-y="0"
     inkscape:window-maximized="1"
     inkscape:current-layer="g10" /><defs
     id="defs1" /><g
     inkscape:label="Слой 1"
     inkscape:groupmode="layer"
     id="layer1"><g
       id="g10"><g
         id="g11"
         transform="matrix(1.0741394,0,0,1.0741394,-13.379315,-86.012578)"><g
           id="g3"
           transform="translate(-8.9837243,-0.28979756)"><rect
             style="fill:#666666;fill-opacity:1;stroke:none;stroke-width:11.5843;stroke-linecap:round;stroke-linejoin:round;stroke-dasharray:none;stroke-opacity:1;paint-order:stroke fill markers"
             id="rect1"
             width="80.563721"
             height="104.03732"
             x="398.47165"
             y="277.91586" /><g
             style="fill:none"
             id="g1"
             transform="matrix(5.9590112,0,0,5.9590112,366.57366,258.13126)"><path
               d="M 9,6 C 8.44772,6 8,6.44772 8,7 8,7.55228 8.44772,8 9,8 h 6 C 15.5523,8 16,7.55228 16,7 16,6.44772 15.5523,6 15,6 Z"
               fill="currentColor"
               id="path1-3" /><path
               d="m 9,10 c -0.55228,0 -1,0.4477 -1,1 0,0.5523 0.44772,1 1,1 h 6 c 0.5523,0 1,-0.4477 1,-1 0,-0.5523 -0.4477,-1 -1,-1 z"
               fill="currentColor"
               id="path2-6" /><path
               d="m 13,17 c 0,0.5523 -0.4477,1 -1,1 -0.5523,0 -1,-0.4477 -1,-1 0,-0.5523 0.4477,-1 1,-1 0.5523,0 1,0.4477 1,1 z"
               fill="currentColor"
               id="path3" /><path
               fill-rule="evenodd"
               clip-rule="evenodd"
               d="M 4,5 C 4,3.34315 5.34315,2 7,2 h 10 c 1.6569,0 3,1.34315 3,3 v 14 c 0,1.6569 -1.3431,3 -3,3 H 7 C 5.34315,22 4,20.6569 4,19 Z M 7,4 h 10 c 0.5523,0 1,0.44772 1,1 v 14 c 0,0.5523 -0.4477,1 -1,1 H 7 C 6.44772,20 6,19.5523 6,19 V 5 C 6,4.44772 6.44771,4 7,4 Z"
               fill="currentColor"
               id="path4" /></g></g><circle
           style="fill:#aa0000;fill-opacity:1;stroke:none;stroke-width:11.5843;stroke-linecap:round;stroke-linejoin:round;stroke-dasharray:none;stroke-opacity:1;paint-order:stroke fill markers"
           id="path5"
           cx="450.19736"
           cy="359.17654"
           r="5.7599092" /></g><ellipse
         style="fill:#000000;fill-opacity:1;stroke:none;stroke-width:12.4432;stroke-linecap:round;stroke-linejoin:round;stroke-dasharray:none;stroke-opacity:1;paint-order:stroke fill markers"
         id="path11"
         cx="274.33441"
         cy="389.40857"
         rx="6.7420654"
         ry="6.8988576" /><ellipse
         style="fill:#000000;fill-opacity:1;stroke:none;stroke-width:12.4432;stroke-linecap:round;stroke-linejoin:round;stroke-dasharray:none;stroke-opacity:1;paint-order:stroke fill markers"
         id="path11-6"
         cx="317.50732"
         cy="389.59415"
         rx="6.7420654"
         ry="6.8988576" /><ellipse
         style="fill:#000000;fill-opacity:1;stroke:none;stroke-width:12.4432;stroke-linecap:round;stroke-linejoin:round;stroke-dasharray:none;stroke-opacity:1;paint-order:stroke fill markers"
         id="path11-6-7"
         cx="359.51819"
         cy="389.65503"
         rx="6.7420654"
         ry="6.8988576" /><ellipse
         style="fill:#000000;fill-opacity:1;stroke:none;stroke-width:12.4432;stroke-linecap:round;stroke-linejoin:round;stroke-dasharray:none;stroke-opacity:1;paint-order:stroke fill markers"
         id="path11-6-7-0"
         cx="403.20651"
         cy="389.41422"
         rx="6.7420654"
         ry="6.8988576" /><ellipse
         style="fill:#000000;fill-opacity:1;stroke:none;stroke-width:12.4432;stroke-linecap:round;stroke-linejoin:round;stroke-dasharray:none;stroke-opacity:1;paint-order:stroke fill markers"
         id="path11-6-7-0-8"
         cx="447.96924"
         cy="389.61526"
         rx="6.7420654"
         ry="6.8988576" /><ellipse
         style="fill:#000000;fill-opacity:1;stroke:none;stroke-width:12.4432;stroke-linecap:round;stroke-linejoin:round;stroke-dasharray:none;stroke-opacity:1;paint-order:stroke fill markers"
         id="path11-6-7-0-8-2"
         cx="448.09229"
         cy="354.6116"
         rx="6.7420654"
         ry="6.8988576" /></g><g
       id="g9"
       transform="matrix(1.0741394,0,0,1.0741394,-13.379315,-17.937609)"><g
         id="g8"><rect
           style="fill:#1a1a1a;fill-opacity:1;stroke:none;stroke-width:11.5843;stroke-linecap:round;stroke-linejoin:round;stroke-dasharray:none;stroke-opacity:1;paint-order:stroke fill markers"
           id="rect8"
           width="295.19901"
           height="28.074869"
           x="40.047977"
           y="315.84229" /><g
           id="g7"><rect
             style="fill:#1a1a1a;fill-opacity:1;stroke:none;stroke-width:11.5843;stroke-linecap:round;stroke-linejoin:round;stroke-dasharray:none;stroke-opacity:1;paint-order:stroke fill markers"
             id="rect7"
             width="61.916763"
             height="22.585989"
             x="156.15486"
             y="346.57809" /><g
             id="g6"><rect
               style="fill:#1a1a1a;fill-opacity:1;stroke:none;stroke-width:11.5843;stroke-linecap:round;stroke-linejoin:round;stroke-dasharray:none;stroke-opacity:1;paint-order:stroke fill markers"
               id="rect6"
               width="116.82408"
               height="14.018889"
               x="129.28531"
               y="370.33234" /><g
               id="g5"><rect
                 style="fill:#666666;fill-opacity:1;stroke:none;stroke-width:11.5843;stroke-linecap:round;stroke-linejoin:round;stroke-dasharray:none;stroke-opacity:1;paint-order:stroke fill markers"
                 id="rect5"
                 width="294.45346"
                 height="176.18938"
                 x="40.628143"
                 y="139.58382" /><g
                 transform="matrix(0.06225872,0,0,-0.06225872,27.505015,419.81221)"
                 fill="#000000"
                 stroke="none"
                 id="g2"><path
                   d="m 266,4624 c -34,-11 -64,-31 -102,-68 -91,-92 -84,49 -84,-1676 0,-1723 -7,-1585 83,-1674 91,-91 37,-86 989,-86 h 830 l -5,-27 c -3,-16 -13,-70 -23,-120 l -18,-93 h -183 c -182,0 -184,0 -208,-25 -24,-23 -25,-28 -25,-175 0,-147 1,-152 25,-175 l 24,-25 h 991 991 l 24,25 c 24,23 25,28 25,175 0,147 -1,152 -25,175 -24,25 -26,25 -208,25 h -183 l -18,93 c -10,50 -20,104 -23,119 l -5,28 848,2 849,3 50,27 c 59,31 94,67 126,128 l 24,45 3,1535 c 3,1750 10,1603 -84,1697 -91,91 140,83 -2398,82 -1962,0 -2247,-2 -2290,-15 z m 4576,-182 33,-32 3,-1325 2,-1325 H 2560 240 l 2,1324 3,1324 25,27 c 14,15 34,31 45,35 11,5 1027,8 2257,7 l 2238,-2 z m 36,-2967 -3,-125 -33,-32 -32,-33 H 2560 310 l -32,33 -33,32 -3,125 -4,125 H 2560 4882 Z M 2994,1028 c 10,-51 20,-105 23,-120 l 6,-28 h -463 -462 l 5,28 c 3,15 13,69 23,120 l 18,92 h 416 416 z m 446,-348 v -40 h -880 -880 v 40 40 h 880 880 z"
                   id="path1" /></g></g></g></g></g><circle
         style="fill:#008080;fill-opacity:1;stroke:none;stroke-width:11.5843;stroke-linecap:round;stroke-linejoin:round;stroke-dasharray:none;stroke-opacity:1;paint-order:stroke fill markers"
         id="path6"
         cx="316.49591"
         cy="330.1254"
         r="5.9385576" /></g></g><metadata
     id="metadata1"><rdf:RDF><cc:Work
         rdf:about=""><cc:license
           rdf:resource="https://opensource.org/license/mit" /></cc:Work></rdf:RDF></metadata></svg>
